<svg xmlns="http://www.w3.org/2000/svg" style="display: none;"><symbol id="recycle" viewBox="0 0 508.729 508.729"><title>recycle</title><path style="fill:#428DC3;" d="M507.504,260.539L448.8,160.827l-105.728,61.504l66.144,116.192h37.648 c14.768,0,29.04-5.008,40.336-14.144c2.432-2.448,5.152-5.12,8.256-8.048l1.04-1.584c10.08-15.408,14.208-34.016,11.344-52.208 C507.664,261.259,507.504,260.539,507.504,260.539z"/><path style="fill:#6DAFDF;" d="M495.472,316.347l-14.496,22.192l-51.648,89.088c-9.6,16.528-27.248,26.688-46.352,26.688h-60v47.04 l-57.904-104.928l57.904-104.944v47.04h123.92c1.184,0,2.352-0.064,3.488-0.16c13.52-0.72,26.448-5.568,36.848-14 c2.32-2.352,4.928-4.88,7.872-7.68c0.048-0.016,0.112-0.064,0.16-0.096C495.344,316.539,495.408,316.427,495.472,316.347z"/><path style="fill:#428DC3;" d="M115.168,456.747l115.696-0.512l0.096-122.32l-133.696-1.344l-18.96,32.528 c-7.44,12.752-10.304,27.616-8.096,41.984c0.896,3.328,1.824,7.024,2.8,11.184l0.848,1.68c8.24,16.464,22.24,29.408,39.392,36.096 C114.48,456.523,115.168,456.747,115.168,456.747z"/><path style="fill:#6DAFDF;" d="M73.008,418.251l-11.872-23.696l-50.96-89.488c-9.456-16.624-9.344-36.976,0.272-53.488l30.208-51.84 L0,176.043l119.808,2.8l61.52,102.864l-40.64-23.664L78.304,365.099c-0.592,1.024-1.12,2.064-1.616,3.088 c-6.192,12.032-8.496,25.648-6.448,38.88c0.864,3.2,1.728,6.704,2.672,10.672c0,0.048,0,0.128,0,0.176 C72.912,418.043,72.976,418.155,73.008,418.251z"/><path style="fill:#428DC3;" d="M138.8,27.659L84.256,129.691l107.584,58.224l64.736-116.976l-19.6-32.144 c-7.68-12.608-19.392-22.192-33.088-27.072c-3.36-0.8-7.04-1.728-11.168-2.864l-1.888-0.064c-18.4-0.576-36.448,5.584-50.48,17.504 C139.328,27.147,138.8,27.659,138.8,27.659z"/><path style="fill:#6DAFDF;" d="M192.704,8.859L219.2,9.675l102.944-2.288c19.104-0.416,36.976,9.36,46.928,25.68l31.248,51.216 l40.16-24.496l-59.424,104.064l-119.744,5.232l40.16-24.496L236.944,38.795c-0.624-1.008-1.28-1.968-1.952-2.896 c-7.648-11.168-18.528-19.68-31.136-24.16c-3.216-0.768-6.72-1.664-10.656-2.72c-0.048-0.032-0.112-0.064-0.16-0.08 C192.944,8.875,192.816,8.875,192.704,8.859z"/></symbol><symbol id="toothbrush" viewBox="0 0 460 460"><title>toothbrush</title><polygon style="fill:#EF1F4B;" points="165,150 164.384,150 145,227.538 145,460 185,460 185,232.462 205,152.462 205,0 165,0 "/><rect x="105" y="90" style="fill:#F57B71;" width="60" height="30"/><rect x="105" y="60" style="fill:#EF9E8F;" width="60" height="30"/><rect x="105" y="120" style="fill:#EF9E8F;" width="60" height="30"/><rect x="105" y="30" style="fill:#F57B71;" width="60" height="30"/><rect x="105" style="fill:#EF9E8F;" width="60" height="30"/><rect x="285" style="fill:#EF1F4B;" width="60" height="50"/><polygon style="fill:#EF1F4B;" points="315,420 405,420 385,90 315,90 "/><polygon style="fill:#3FC3D8;" points="315,90 385,90 345,50 315,50 "/><polygon style="fill:#EA6453;" points="315,90 245,90 225,420 315,420 "/><polygon style="fill:#6BE0F4;" points="315,50 285,50 245,90 315,90 "/><rect x="225" y="420" style="fill:#EF9E8F;" width="90" height="40"/><rect x="315" y="420" style="fill:#F57B71;" width="90" height="40"/><path style="fill:#6BE0F4;" d="M105,50c0-27.5-22.5-50-50-50v150h50V50z"/></symbol><symbol id="sponge" viewBox="0 0 216.291 216.291"><title>sponge</title><path id="path-1_86_" style="fill:#0CB04A;" d="M196,206.297c4.396,0,7.96-2.236,7.96-4.996c0-2.759-3.564-4.996-7.96-4.996 h-24.394c-4.395,0-7.96,2.237-7.96,4.996c0,2.76,3.565,4.996,7.96,4.996H196z"/><path id="path-2_86_" style="fill:#0CB04A;" d="M144.048,216.291h7.025c2.019,0,3.656-2.019,3.656-4.51 c0-2.492-1.637-4.511-3.656-4.511h-29.726c-2.019,0-3.655-2.02-3.655-4.511c0-2.492,1.636-4.511,3.655-4.511h6.246 c2.018,0,3.655-2.02,3.655-4.511c0-2.492-1.637-4.511-3.655-4.511H97.866H70.819c-2.018,0-3.655,2.019-3.655,4.511 c0,2.491,1.637,4.511,3.655,4.511h22.506c2.019,0,3.655,2.019,3.655,4.511c0,2.491-1.636,4.511-3.655,4.511h-0.487 c-2.019,0-3.655,2.019-3.655,4.511c0,2.491,1.636,4.51,3.655,4.51h10.47l0,0"/><path id="path-3_86_" style="fill:#0CB04A;" d="M29.742,51.63c4.576,4.532,4.576,11.883,0,16.415 c-4.576,4.533-11.994,4.533-16.57,0c-4.576-4.532-4.576-11.883,0-16.415C17.748,47.097,25.166,47.097,29.742,51.63z"/><path id="path-4_85_" style="fill:#0CB04A;" d="M201.266,137.081c7.281,7.214,7.281,18.909,0,26.124 c-7.282,7.213-19.087,7.213-26.369,0c-7.282-7.215-7.282-18.91,0-26.124C182.179,129.868,193.984,129.868,201.266,137.081z"/><path id="path-5_85_" style="fill:#FFFFFF;" d="M196.708,141.597c2.352,2.331,2.352,6.109,0,8.44c-2.353,2.331-6.168,2.331-8.52,0 c-2.353-2.331-2.353-6.109,0-8.44C190.54,139.266,194.355,139.266,196.708,141.597z"/><path id="path-6_84_" style="fill:#0CB04A;" d="M67.677,2.2c2.96,2.933,2.96,7.688,0,10.62s-7.76,2.932-10.72,0 s-2.96-7.687,0-10.62S64.717-0.733,67.677,2.2z"/><path id="path-7_84_" style="fill:#FBB713;" d="M174.908,67.328l-0.719,0.378c0.241,7.711-1.99,14.667-7.009,19.639l-9.515,9.427 c-14.317,1.268-29.616,8.321-42.075,20.664c-12.46,12.343-19.58,27.5-20.86,41.683l-11.188,11.082 c-12.626,12.508-37.839,7.808-56.316-10.495c-3.278-3.247-6.101-6.71-8.494-10.27l-1.466,0.771 c1.814,10.244,7.659,21.281,17.057,30.59c18.477,18.305,43.69,23.003,56.316,10.496l11.187-11.084 c1.28-14.182,8.401-29.338,20.86-41.681s27.758-19.396,42.076-20.665l9.515-9.426C183.746,99.056,183.445,82.661,174.908,67.328z"/><path id="path-8_81_" style="fill:#FCCB56;" d="M70.71,72.978c-12.968,12.847-29.012,19.954-43.824,20.78l-10.254,10.158 c-12.626,12.508-7.883,37.486,10.594,55.79c18.477,18.303,43.69,23.003,56.316,10.495l11.188-11.082 c1.28-14.183,8.4-29.34,20.86-41.683c12.459-12.343,27.758-19.396,42.075-20.664l9.515-9.427 c12.625-12.507,7.882-37.485-10.595-55.789c-18.477-18.303-43.69-23.003-56.316-10.496l-8.581,8.503 C90.853,44.236,83.68,60.129,70.71,72.978z"/><path id="path-9_77_" style="opacity:0.15;fill:#0B0B0A;enable-background:new ;" d="M39.981,102.861 c4.575,4.532,4.575,11.882,0,16.415c-4.576,4.533-11.995,4.533-16.571,0c-4.575-4.533-4.575-11.883,0-16.415 C27.986,98.328,35.405,98.328,39.981,102.861z"/><path id="path-10_70_" style="opacity:0.25;fill:#0B0B0A;enable-background:new ;" d="M155.433,105.758 c2.961,2.933,2.961,7.688,0,10.621c-2.96,2.932-7.76,2.932-10.72,0c-2.96-2.933-2.96-7.688,0-10.621 C147.673,102.826,152.473,102.826,155.433,105.758z"/><path id="path-11_61_" style="opacity:0.15;fill:#0B0B0A;enable-background:new ;" d="M117.605,18.083 c2.96,2.932,2.96,7.688,0,10.62s-7.76,2.932-10.72,0s-2.96-7.688,0-10.62C109.845,15.15,114.645,15.15,117.605,18.083z"/><path id="path-12_51_" style="opacity:0.15;fill:#0B0B0A;enable-background:new ;" d="M101.079,89.102 c5.067,5.019,5.067,13.156,0,18.175c-5.066,5.019-13.28,5.019-18.347,0c-5.066-5.019-5.066-13.156,0-18.175 C87.799,84.084,96.013,84.084,101.079,89.102z"/><path id="path-13_42_" style="opacity:0.15;fill:#0B0B0A;enable-background:new ;" d="M172.22,62.357 c5.066,5.019,5.066,13.157,0,18.175c-5.066,5.019-13.281,5.019-18.347,0c-5.066-5.018-5.066-13.156,0-18.175 C158.939,57.338,167.154,57.338,172.22,62.357z"/><path id="path-14_35_" style="opacity:0.15;fill:#0B0B0A;enable-background:new ;" d="M49.673,158.466 c2.96,2.933,2.96,7.687,0,10.62c-2.961,2.932-7.76,2.932-10.721,0c-2.96-2.933-2.96-7.687,0-10.62 C41.913,155.533,46.712,155.533,49.673,158.466z"/></symbol><symbol id="squares" viewBox="0 0 512.001 512.001"><title>squares</title><path style="fill:#8AE9ED;" d="M261.604,1.146L9.263,105.669c-3.676,1.522-6.597,4.442-8.117,8.117 c-1.523,3.676-1.523,7.806-0.001,11.48L105.67,377.607c3.17,7.652,11.945,11.287,19.599,8.117l252.339-104.522 c7.653-3.17,11.288-11.945,8.118-19.598L281.201,9.263C278.031,1.61,269.257-2.025,261.604,1.146z"/><path style="fill:#1CDAE3;" d="M261.604,1.146l-126.17,52.261l116.003,280.056l126.17-52.261c7.653-3.17,11.288-11.945,8.118-19.598 L281.201,9.263C278.031,1.61,269.257-2.025,261.604,1.146z"/><g> <path style="fill:#CAF9FF;" d="M245.507,214.188c-7.654,3.17-16.429-0.465-19.6-8.118l-18.853-45.515l-45.515,18.854 c-7.653,3.17-16.428-0.465-19.598-8.118c-3.17-7.653,0.464-16.429,8.117-19.599l59.373-24.593 c7.653-3.171,16.429,0.464,19.599,8.117l24.593,59.373C256.795,202.243,253.159,211.017,245.507,214.188z"/> <path style="fill:#CAF9FF;" d="M496.997,208.869H223.866c-3.979,0-7.794,1.58-10.606,4.394c-2.814,2.813-4.394,6.628-4.394,10.606 l0.002,273.132c0,8.284,6.716,15,15,15h273.129c8.284,0,15-6.716,15-15V223.869C511.997,215.584,505.281,208.869,496.997,208.869z"/> </g><path style="fill:#8AE9ED;" d="M496.997,208.869H360.432v303.132h136.565c8.284,0,15-6.716,15-15V223.869 C511.997,215.584,505.281,208.869,496.997,208.869z"/><path style="fill:#1CDAE3;" d="M400.599,399.535c-8.284,0-15-6.716-15-15V335.27h-49.265c-8.284,0-15-6.716-15-15 c0-8.284,6.716-15,15-15h64.265c8.284,0,15,6.716,15,15v64.265C415.599,392.819,408.883,399.535,400.599,399.535z"/></symbol><symbol id="steak" viewBox="0 0 49.818 49.818"><title>steak</title><path style="fill:#994530;" d="M0.953,38.891c0,0,3.184,6.921,11.405,9.64c1.827,0.604,3.751,0.751,5.667,0.922 c7.866,0.703,26.714-0.971,31.066-18.976c1.367-5.656,0.76-11.612-1.429-17.003C44.51,5.711,37.447-4.233,22.831,2.427 c-8.328,3.795-7.696,10.279-5.913,14.787c2.157,5.456-2.243,11.081-8.06,10.316C1.669,26.584-1.825,30.904,0.953,38.891z"/><g> <path style="fill:#D75A4A;" d="M4.69,37.18c0.402,0.785,3.058,5.552,9.111,7.554c1.335,0.441,2.863,0.577,4.482,0.72l0.282,0.025 c0.818,0.073,1.698,0.11,2.617,0.11c18.18,0,22.854-11.218,24.02-16.041c1.134-4.693,0.706-9.703-1.235-14.488 C41.049,7.874,36.856,4.229,31.506,4.229c-2.21,0-4.683,0.615-7.349,1.83c-2.992,1.364-6.676,3.921-4.13,10.36 c1.284,3.25,0.912,6.746-1.023,9.591c-2.17,3.191-6.002,4.901-9.895,4.39c-0.493-0.065-0.966-0.099-1.404-0.099 c-1.077,0-2.502,0.198-3.173,1.143C3.765,32.524,3.823,34.609,4.69,37.18z"/> <path style="fill:#C64940;" d="M21.184,46.589c-0.948,0-1.858-0.038-2.706-0.114l-0.283-0.025 c-1.674-0.147-3.257-0.287-4.706-0.767c-6.376-2.108-9.188-7.073-9.688-8.047l-0.058-0.137c-0.984-2.917-0.993-5.273-0.026-6.635 c0.912-1.285,2.89-1.807,5.524-1.456c3.537,0.466,6.959-1.054,8.936-3.961c1.746-2.565,2.082-5.723,0.921-8.661 c-3.189-8.065,2.707-10.754,4.645-11.638c9.68-4.407,16.81-1.155,21.152,9.535c2.021,4.981,2.464,10.202,1.28,15.099 C44.953,34.836,40.073,46.589,21.184,46.589z M5.613,36.787c0.401,0.758,2.936,5.155,8.503,6.997 c1.229,0.406,2.699,0.536,4.256,0.673l0.284,0.025c0.788,0.07,1.639,0.106,2.527,0.106c17.469,0,21.938-10.683,23.048-15.276 c1.084-4.487,0.672-9.286-1.19-13.877C40.29,8.663,36.409,5.229,31.506,5.229c-2.067,0-4.4,0.585-6.934,1.74 c-3.02,1.376-5.81,3.532-3.615,9.083c1.408,3.563,0.998,7.398-1.126,10.521c-2.404,3.534-6.563,5.386-10.852,4.818 c-1.793-0.236-3.197,0.019-3.632,0.632C4.912,32.636,4.756,34.207,5.613,36.787z"/> </g><g> <circle style="fill:#E6E6E6;" cx="32.455" cy="12.779" r="4"/> <path style="fill:#7A3726;" d="M32.455,17.779c-2.757,0-5-2.243-5-5s2.243-5,5-5s5,2.243,5,5S35.212,17.779,32.455,17.779z M32.455,9.779c-1.654,0-3,1.346-3,3s1.346,3,3,3s3-1.346,3-3S34.109,9.779,32.455,9.779z"/> </g><path style="fill:#C64940;" d="M25.617,45.684l-1.941-0.479c0.435-1.761-1.063-3.216-3.446-4.859 c-2.875-1.984-4.817-5.117-5.327-8.595c-0.186-1.266-0.425-2.285-0.428-2.295l1.922-0.548c0.01,0.028,1.09,3.104,3.978,4.314 c2.094,0.877,4.667,0.598,7.648-0.832c11.578-5.554,17.102-2.646,17.332-2.52l-0.967,1.752c-0.04-0.021-4.97-2.48-15.5,2.57 c-3.53,1.694-6.662,1.984-9.312,0.863c-0.801-0.339-1.49-0.779-2.078-1.265c0.769,1.974,2.11,3.695,3.867,4.907 C23.149,39.931,26.472,42.222,25.617,45.684z"/><path style="fill:#C64940;" d="M27.074,27.586c-5.37,0-7.605-3.694-7.633-3.74l1.727-1.01l-0.863,0.505l0.859-0.511 c0.108,0.179,2.714,4.335,9.738,2.105c1.54-0.794,12.038-6.002,15.619-2.289l-1.439,1.389c-1.979-2.052-9.229,0.576-13.332,2.714 l-0.154,0.064C29.892,27.364,28.389,27.586,27.074,27.586z"/></symbol><symbol id="cereals" viewBox="0 0 51.906 51.906"><title>cereals</title><polygon style="fill:#B27C4F;" points="7.88,49 0.904,46 0.904,0 7.88,0 "/><path style="fill:#A46F3E;" d="M15.431,34.121c0,0,0-0.069,0-0.104c0-2.371,7.963-4.293,17.785-4.293 c1.028,0,2.03,0.026,3.01,0.066l2.677-10.04V0H7.911v49h15.578C18.64,45.823,15.431,40.35,15.431,34.121z"/><path style="fill:#F9EA80;" d="M20.904,23.228h-3.658c-2.95,0-5.342-2.392-5.342-5.342v-3.658h3.658 c2.95,0,5.342,2.392,5.342,5.342V23.228z"/><path style="fill:#F9EA80;" d="M24.904,23.228h3.658c2.95,0,5.342-2.392,5.342-5.342v-3.658h-3.658 c-2.95,0-5.342,2.392-5.342,5.342V23.228z"/><path style="fill:#F9EA80;" d="M22.897,18.728l2.587-2.587c2.086-2.086,2.086-5.468,0-7.554L22.897,6L20.31,8.587 c-2.086,2.086-2.086,5.468,0,7.554L22.897,18.728z"/><path style="fill:#EFE7D0;" d="M40.154,30.063L43.904,16c0-0.55-0.45-1-1-1h-2c-0.55,0-1,0.45-1,1l-3.677,13.79 c-0.98-0.041-1.982-0.066-3.01-0.066c-9.823,0-17.785,1.922-17.785,4.293c0,0.035,0,0.104,0,0.104 c0,9.823,7.963,17.785,17.785,17.785c9.823,0,17.785-7.963,17.785-17.785c0,0,0-0.069,0-0.104 C51.002,32.24,46.53,30.716,40.154,30.063z"/><path style="fill:#FFF5BB;" d="M40.154,30.063L43.904,16c0-0.55-0.45-1-1-1h-2c-0.55,0-1,0.45-1,1l-3.677,13.79 c-0.98-0.041-1.982-0.066-3.01-0.066c-9.823,0-17.785,1.922-17.785,4.293c0,2.371,7.963,4.293,17.785,4.293 c9.823,0,17.785-1.922,17.785-4.293C51.002,32.24,46.53,30.716,40.154,30.063z"/><path style="fill:#D2D5D7;" d="M40.154,30.063L43.904,16c0-0.55-0.45-1-1-1h-2c-0.55,0-1,0.45-1,1l-3.677,13.79l-0.656,2.502 L39.446,33L40.154,30.063z"/><path style="fill:#ED8F20;" d="M28.904,35h-2c0-0.552-0.449-1-1-1s-1,0.448-1,1h-2c0-1.654,1.346-3,3-3S28.904,33.346,28.904,35z"/><path style="fill:#ED8F20;" d="M36.904,36h-2c0-0.552-0.449-1-1-1s-1,0.448-1,1h-2c0-1.654,1.346-3,3-3S36.904,34.346,36.904,36z"/></symbol><symbol id="coffee" viewBox="0 0 340 340"><title>coffee</title><polygon id="XMLID_138_" style="fill:#DEDDE0;" points="76.429,290 80,340 170,340 170,290 "/><polygon id="XMLID_169_" style="fill:#DEDDE0;" points="170,80 61.429,80 65,130 170,130 "/><polygon id="XMLID_197_" style="fill:#ACABB1;" points="170,290 170,340 260,340 263.571,290 "/><polygon id="XMLID_221_" style="fill:#ACABB1;" points="170,80 170,130 275,130 278.571,80 "/><path id="XMLID_222_" style="fill:#FFDA44;" d="M170,260c-22.091,0-40-22.386-40-50s17.909-50,40-50v-30H65H50l10,160h16.429H170 V260z"/><path id="XMLID_33_" style="fill:#FF9811;" d="M170,130v30c22.091,0,40,22.386,40,50s-17.909,50-40,50v30h93.571H280l10-160h-15 H170z"/><path id="XMLID_223_" style="fill:#50412E;" d="M210,210c0-27.614-17.909-50-40-50v100C192.091,260,210,237.614,210,210z"/><path id="XMLID_224_" style="fill:#786145;" d="M130,210c0,27.614,17.909,50,40,50V160C147.909,160,130,182.386,130,210z"/><polygon id="XMLID_225_" style="fill:#50412E;" points="278.571,80 300,80 300,40 260,40 260,0 80,0 80,40 40,40 40,80 61.429,80 170,80 "/></symbol><symbol id="milk" viewBox="0 0 57 57"><title>milk</title><polygon style="fill:#C6C6C6;" points="26,57 12,51 12,18 26,23 "/><polygon style="fill:#E6E6E6;" points="45,52 26,57 26,23 45,18 "/><polygon style="fill:#E2E2E2;" points="38,4 19,8 19,4 38,0 "/><polygon style="fill:#D1D1D1;" points="26,23 12,18 19,8 19,8 "/><polygon style="fill:#EAEAEA;" points="45,18 26,23 19,8 38,4 "/><polygon style="fill:#3DABEF;" points="45,37 26,52 26,37 45,21 "/><polygon style="fill:#2B9DD6;" points="12,46 26,52 26,37 12,31 "/><path style="fill:#FFFFFF;" d="M34.215,16.875L34.215,16.875c-2.217,0.58-2.956-1.423-3.305-2.753l0,0 c-0.348-1.33-0.684-3.439,1.533-4.019l0,0c2.217-0.58,2.956,1.423,3.304,2.753v0C36.095,14.186,36.432,16.295,34.215,16.875z"/><polygon style="fill:#EDEDED;" points="34,4.842 36,4.421 36,0.421 34,0.842 "/><polygon style="fill:#EDEDED;" points="30,5.684 32,5.263 32,1.263 30,1.684 "/><polygon style="fill:#EDEDED;" points="26,6.526 28,6.105 28,2.105 26,2.526 "/><polygon style="fill:#EDEDED;" points="22,7.368 24,6.947 24,2.947 22,3.368 "/></symbol><symbol id="lemon" viewBox="0 0 55 55"><title>lemon</title><path style="fill:#F4C44E;" d="M55,31.005H13c0,11.598,9.402,21,21,21S55,42.602,55,31.005z"/><path style="fill:#F9EA80;" d="M51,31.005H17c0,9.389,7.611,17,17,17S51,40.393,51,31.005z"/><rect x="33" y="31.005" style="fill:#F9DA49;" width="2" height="17"/><rect x="31.515" y="36.005" transform="matrix(0.7071 0.7071 -0.7071 0.7071 37.8819 -17.4459)" style="fill:#F9DA49;" width="16.971" height="2"/><rect x="27" y="28.519" transform="matrix(0.7071 0.7071 -0.7071 0.7071 34.3672 -8.9606)" style="fill:#F9DA49;" width="2" height="16.971"/><path style="fill:#F9D70B;" d="M47.983,11.284l0.397-0.397c1.556-1.556,1.556-4.101,0-5.657c-1.556-1.556-4.101-1.556-5.657,0 l-0.24,0.24c-9.091-6.132-23.107-3.763-32.994,6.124S-2.767,35.498,3.365,44.589l-0.24,0.24c-1.556,1.556-1.556,4.101,0,5.657 s4.101,1.556,5.657,0l0.397-0.397c5.548,3.31,12.717,3.647,19.639,1.245C19.731,49.023,13,40.811,13,31.005h36.202 C51.635,24.057,51.306,16.854,47.983,11.284z M32.885,9.024c-0.435,1.205-1.612,1.551-2.755,1.293 c0.588,0.133-0.089,0.004-0.21-0.007c-0.155-0.014-0.31-0.027-0.465-0.029c-0.051-0.001-0.101,0-0.152,0 c-0.026,0.002-0.051,0.004-0.094,0.007c-0.167,0.018-0.333,0.039-0.499,0.064c-1.159,0.175-2.283-0.584-2.485-1.758 c-0.196-1.137,0.598-2.31,1.758-2.485c1.244-0.188,2.392-0.115,3.609,0.16C32.739,6.528,33.246,8.024,32.885,9.024z"/></symbol></svg>